<svg width="190" height="34" fill="none" xmlns="http://www.w3.org/2000/svg"><path fill-rule="evenodd" clip-rule="evenodd" d="M113.171 5.544v4.09h-4.694v-4.09h4.694zM53.296 23.343V27H39.645V6.494h4.493v16.849h9.158zm13.306 2.966c-1.152.614-2.496.921-4.032.921-1.575 0-2.938-.307-4.09-.921a6.408 6.408 0 01-2.664-2.635c-.624-1.143-.936-2.491-.936-4.047 0-1.555.312-2.899.936-4.032a6.522 6.522 0 012.664-2.635c1.152-.624 2.515-.936 4.09-.936 1.536 0 2.88.312 4.032.936a6.522 6.522 0 012.664 2.635c.624 1.133.936 2.477.936 4.032 0 1.556-.312 2.904-.936 4.047a6.408 6.408 0 01-2.664 2.635zm-4.032-2.39c-1.095 0-1.93-.35-2.506-1.052-.576-.7-.864-1.78-.864-3.24 0-1.44.293-2.51.878-3.21.586-.702 1.416-1.052 2.492-1.052 1.056 0 1.872.35 2.448 1.051.576.7.864 1.771.864 3.211 0 1.46-.288 2.54-.864 3.24-.576.701-1.392 1.052-2.448 1.052zm23.198 7.718c-1.334 1.21-3.298 1.814-5.89 1.814-2.304 0-4.32-.45-6.048-1.353l.663-3.226c.864.442 1.737.768 2.62.98a11.24 11.24 0 002.621.316c1.248 0 2.18-.288 2.794-.864l.127-.128c.53-.576.795-1.416.795-2.521l-.001-2.553-.019.031a5.42 5.42 0 01-.7.851 5.59 5.59 0 01-1.743 1.166 5.445 5.445 0 01-2.203.447c-1.267 0-2.39-.303-3.37-.907-.979-.605-1.747-1.455-2.304-2.55-.556-1.093-.835-2.37-.835-3.83 0-1.459.279-2.73.835-3.815.557-1.085 1.325-1.935 2.304-2.55.98-.614 2.103-.92 3.37-.92 1.19 0 2.242.292 3.154.877l.221.15c.504.36.908.784 1.212 1.271l.078.134v-2.059h4.32v13.91c0 2.343-.667 4.12-2.001 5.329zm-5.717-8.352c-1.056 0-1.896-.355-2.52-1.066-.624-.71-.936-1.68-.936-2.909 0-1.228.307-2.193.922-2.894.614-.7 1.459-1.051 2.534-1.051 1.075 0 1.91.355 2.506 1.065.595.71.893 1.67.893 2.88 0 1.248-.303 2.223-.908 2.924-.604.7-1.435 1.05-2.49 1.05zm22.205 3.024c-1.152.614-2.496.921-4.032.921-1.574 0-2.938-.307-4.09-.921a6.408 6.408 0 01-2.664-2.635c-.624-1.143-.936-2.491-.936-4.047 0-1.555.312-2.899.936-4.032a6.522 6.522 0 012.664-2.635c1.152-.624 2.516-.936 4.09-.936 1.536 0 2.88.312 4.032.936a6.522 6.522 0 012.664 2.635c.624 1.133.936 2.477.936 4.032 0 1.556-.312 2.904-.936 4.047a6.408 6.408 0 01-2.664 2.635zm-4.032-2.39c-1.094 0-1.93-.35-2.506-1.052-.576-.7-.864-1.78-.864-3.24 0-1.44.293-2.51.879-3.21.585-.702 1.416-1.052 2.491-1.052 1.056 0 1.872.35 2.448 1.051.576.7.864 1.771.864 3.211 0 1.46-.288 2.54-.864 3.24-.576.701-1.392 1.052-2.448 1.052zM112.998 27V12.4h-4.348V27h4.348zm7.891-2.12l.001 8.34h-4.349V16.576c0-.692-.015-1.388-.043-2.088a21.676 21.676 0 00-.188-2.088h4.09l.276 2.462.046-.113c.337-.76.878-1.38 1.622-1.86.893-.576 1.934-.864 3.125-.864 1.267 0 2.385.322 3.355.965.97.643 1.733 1.545 2.29 2.707.556 1.162.835 2.5.835 4.018 0 1.517-.279 2.841-.835 3.974-.557 1.133-1.32 2.007-2.29 2.62-.97.615-2.088.922-3.355.922-1.191 0-2.232-.278-3.125-.835l-.217-.143a4.06 4.06 0 01-1.178-1.265l-.06-.107zm3.341-.961c-1.094 0-1.929-.365-2.505-1.095-.576-.73-.864-1.786-.864-3.168 0-1.382.288-2.443.864-3.182.576-.74 1.411-1.11 2.505-1.11 1.056 0 1.877.385 2.463 1.153.585.768.878 1.834.878 3.197s-.288 2.405-.864 3.125c-.576.72-1.401 1.08-2.477 1.08zm20.693 2.102c-1.104.806-2.625 1.21-4.565 1.21-2.784 0-4.982-.596-6.595-1.786l1.181-3.024a8.869 8.869 0 002.578 1.282c.95.297 1.905.446 2.865.446.749 0 1.325-.12 1.728-.36s.605-.571.605-.994a.979.979 0 00-.432-.85c-.288-.2-.797-.388-1.526-.56l-2.391-.577c-1.421-.288-2.462-.768-3.125-1.44-.662-.672-.993-1.565-.993-2.678 0-.903.264-1.704.792-2.405.528-.7 1.262-1.253 2.203-1.656.941-.403 2.035-.605 3.283-.605a9.88 9.88 0 013.053.475 9.722 9.722 0 012.678 1.34l-1.209 2.908a9.449 9.449 0 00-2.29-1.18 6.9 6.9 0 00-2.261-.404c-.71 0-1.267.125-1.67.375s-.605.595-.605 1.037c0 .326.12.585.36.777.24.192.667.365 1.282.518l2.448.548c1.497.345 2.582.864 3.254 1.555.672.691 1.008 1.613 1.008 2.765 0 1.382-.552 2.477-1.656 3.283zm9.691 1.21c1.095 0 2.05-.265 2.866-.793a4.645 4.645 0 001.468-1.54l.015-.027v2.13h4.234V12.397h-4.378v8.064c0 1.018-.278 1.834-.835 2.448-.557.615-1.277.922-2.16.922-.787 0-1.368-.216-1.742-.648-.375-.432-.562-1.1-.562-2.002V12.4h-4.349v8.697c0 2.055.451 3.59 1.354 4.608.902 1.018 2.265 1.526 4.089 1.526zm16.445-8.266V27h-4.349V16.575c0-.692-.014-1.388-.043-2.088a21.675 21.675 0 00-.187-2.088h4.09l.245 2.214.133-.231a4.758 4.758 0 011.479-1.537c.835-.547 1.839-.82 3.01-.82 1.325 0 2.376.34 3.153 1.021l.163.152c.37.366.674.82.912 1.36l.08.197.096-.164a5.43 5.43 0 011.615-1.645c.922-.615 1.968-.922 3.139-.922 1.671 0 2.909.509 3.715 1.527.807 1.017 1.21 2.553 1.21 4.607V27h-4.349v-8.698c0-.998-.163-1.727-.489-2.188-.327-.461-.864-.692-1.613-.692-.864 0-1.546.313-2.045.936-.499.625-.749 1.493-.749 2.607V27h-4.349v-8.698c0-.998-.163-1.727-.489-2.188-.327-.461-.855-.692-1.584-.692-.883 0-1.57.313-2.059.936-.49.625-.735 1.493-.735 2.607z" fill="#D8D8D8"/><path d="M0 .4v2.4h28V.4H0zm0 4.8v2.4h28V5.2H0zM0 10v2.4h28V10H0zm0 4.8v2.4h28v-2.4H0zm0 4.8V22h28v-2.4H0zm0 4.8v2.4h28v-2.4H0zm0 4.8v2.4h28v-2.4H0z" fill="#D8D8D8"/></svg>