<svg width="20" height="20" fill="none" xmlns="http://www.w3.org/2000/svg"><path d="M16.719 8.75H11.25a1.875 1.875 0 01-1.875-1.875V1.406a.156.156 0 00-.156-.156H5.625a2.5 2.5 0 00-2.5 2.5v12.5a2.5 2.5 0 002.5 2.5h8.75a2.5 2.5 0 002.5-2.5V8.906a.156.156 0 00-.156-.156zM13.125 15h-6.25a.625.625 0 110-1.25h6.25a.624.624 0 110 1.25zm0-3.125h-6.25a.625.625 0 110-1.25h6.25a.624.624 0 110 1.25z" fill="#BD0007"/><path d="M16.376 7.367l-5.618-5.618a.078.078 0 00-.133.055v5.07a.625.625 0 00.625.626h5.07a.078.078 0 00.056-.133z" fill="#BD0007"/></svg>