<svg width="97" height="30" fill="none" xmlns="http://www.w3.org/2000/svg"><path fill-rule="evenodd" clip-rule="evenodd" d="M20.554 0h5.195v24.042h-5.966V9.025l-6.456 7.544h-.91L5.962 9.025v15.017H0V.001h5.19l7.682 8.92L20.554 0zM55.66 24.043h-6.42l-1.964-4.76H36.58l-1.789 4.76h-6.315L38.121 0h6.911L55.66 24.042zM41.664 5.746l-3.506 9.342h7.365l-3.859-9.342zm15.847 23.16c1.018-.915 1.789-2.854 1.578-4.547-1.225-.493-1.79-1.267-1.79-2.572 0-1.621 1.23-2.786 2.882-2.786 2.065 0 3.506 1.658 3.506 4.02 0 3.525-2.736 6.628-6.176 6.979v-1.093zM72.564 9.872A10.464 10.464 0 0175.26 8.04a7.532 7.532 0 012.913-.565c2.809 0 4.7 1.13 5.824 3.456 2.107-2.433 3.965-3.456 6.384-3.456 3.684 0 6.314 2.434 6.314 6.136v10.433h-5.084v-9.519c0-2.325-1.124-3.63-2.983-3.63-1.474 0-2.84.95-4.001 2.75v10.399h-5.084v-9.625c0-2.643-1.58-3.524-3.09-3.524-1.33 0-2.661.775-3.89 2.255v10.893h-5.09V7.792h5.09v2.08h-.001z" fill="#fff"/></svg>