<svg width="18" height="17" fill="none" xmlns="http://www.w3.org/2000/svg"><path fill-rule="evenodd" clip-rule="evenodd" d="M6.5 1.5a.833.833 0 01.833-.833h3.334a.833.833 0 01.833.833v1.667H14a.833.833 0 01.818.993l-.365 1.865-1.105-.246-4.167-.926a.833.833 0 00-.362 0l-4.166.925-1.106.247-.364-1.865A.833.833 0 014 3.167h2.5V1.5zM1.423 8.163l-.104.024a.833.833 0 00-.564 1.186l1.667 3.333a.833.833 0 00.862.452L9 12.342l5.716.816a.833.833 0 00.862-.452l1.667-3.333a.834.834 0 00-.564-1.186l-.104-.024a.833.833 0 01-.258-.016l-3.333-.741L9 6.52l-3.986.886-3.333.742a.833.833 0 01-.258.015zm5.3 6.341a3.026 3.026 0 014.554 0l.03.034a1.308 1.308 0 001.71.227 2.975 2.975 0 012.755-.287l1.037.415a.833.833 0 01-.618 1.547l-1.038-.415a1.307 1.307 0 00-1.211.127 2.975 2.975 0 01-3.89-.517l-.029-.033a1.36 1.36 0 00-2.046 0l-.03.033a2.975 2.975 0 01-3.889.517 1.308 1.308 0 00-1.211-.127l-1.038.415a.833.833 0 11-.618-1.547l1.037-.415a2.974 2.974 0 012.755.287 1.308 1.308 0 001.71-.227l.03-.034z" fill="#BD0007"/></svg>